<?xml version="1.0" encoding="UTF-8"?>
<!-- Generator: visioncortex VTracer 0.6.12 -->
<svg version="1.1" xmlns="http://www.w3.org/2000/svg" width="256" height="256">
<path d="M0 0 C2 1.063 2 1.063 3 3 C3.5 6.931 3.6 9.101 1.375 12.438 C-1.717 14.472 -3.364 14.606 -7 14 C-9.375 12.437 -9.375 12.437 -11 10 C-11.422 6.563 -11.609 4.179 -10 1.062 C-6.76 -0.659 -3.58 -0.53 0 0 Z " fill="#000000" transform="translate(105,0)"/>
<path d="M0 0 C2 1.063 2 1.063 3 3 C3.5 6.931 3.6 9.101 1.375 12.438 C-1.717 14.472 -3.364 14.606 -7 14 C-9.375 12.437 -9.375 12.437 -11 10 C-11.422 6.563 -11.609 4.179 -10 1.062 C-6.76 -0.659 -3.58 -0.53 0 0 Z " fill="#000000" transform="translate(159,0)"/>
<path d="M0 0 C3.657 2.06 6.827 4.896 8 9 C8.629 15.398 7.859 18.821 4 24 C0.107 26.743 -3.367 27.543 -8.043 27.355 C-12.157 26.608 -14.846 24.075 -17.812 21.312 C-19.684 17.667 -20.113 14.077 -20 10 C-18.389 5.258 -16.125 2.785 -12 0 C-7.805 -1.398 -4.27 -1.071 0 0 Z " fill="#000000" transform="translate(53,34)"/>
<path d="M0 0 C3.657 2.06 6.827 4.896 8 9 C8.629 15.398 7.859 18.821 4 24 C-0.697 27.309 -4.447 27.529 -10 27 C-14.703 24.969 -17.718 21.564 -20 17 C-20.403 11.757 -19.861 8.439 -17 4 C-11.547 -1.044 -7.06 -1.771 0 0 Z " fill="#000000" transform="translate(107,34)"/>
<path d="M0 0 C3.304 1.798 5.479 4.101 7.375 7.375 C8.561 12.357 8.722 15.705 6.188 20.25 C1.835 25.722 1.835 25.722 -2 27 C-8.416 27.535 -11.798 26.876 -17 23 C-19.743 19.107 -20.543 15.633 -20.355 10.957 C-19.589 6.739 -17.068 3.938 -13.938 1.188 C-9.326 -1.639 -5.081 -1.266 0 0 Z " fill="#000000" transform="translate(161,34)"/>
<path d="M0 0 C3.265 1.777 5.43 4.108 7.438 7.25 C8.393 11.92 8.356 16.612 5.953 20.844 C3.706 23.673 1.491 26.003 -2 27 C-8.398 27.629 -11.821 26.859 -17 23 C-19.743 19.107 -20.543 15.633 -20.355 10.957 C-19.589 6.739 -17.068 3.938 -13.938 1.188 C-9.326 -1.639 -5.081 -1.266 0 0 Z " fill="#000000" transform="translate(215,34)"/>
<path d="M0 0 C4.712 5.262 6.38 10.985 6 18 C4.631 24.775 1.045 29.946 -4.688 33.812 C-12.266 36.529 -18.419 36.692 -25.805 33.289 C-31.297 30.064 -33.825 25.282 -35.555 19.359 C-36.634 13.642 -35.747 8.826 -32.938 3.75 C-29.574 -1.135 -25.084 -3.893 -19.562 -5.875 C-11.915 -6.248 -5.894 -5.162 0 0 Z " fill="#000000" transform="translate(116,86)"/>
<path d="M0 0 C4.386 4.996 6.385 10.346 6 17 C4.858 23.048 2.59 27.801 -2 32 C-7.786 35.397 -13.036 36.657 -19.68 35.605 C-26.055 33.942 -30.264 30.444 -34 25 C-36.682 18.661 -36.674 12.141 -34.094 5.758 C-30.748 -0.233 -25.956 -3.58 -19.562 -5.875 C-11.922 -6.248 -5.885 -5.167 0 0 Z " fill="#000000" transform="translate(170,86)"/>
<path d="M0 0 C4.619 2.576 8.306 4.919 10 10 C10.535 16.416 9.876 19.798 6 25 C2.107 27.743 -1.367 28.543 -6.043 28.355 C-10.157 27.608 -12.846 25.075 -15.812 22.312 C-17.684 18.667 -18.113 15.077 -18 11 C-16.389 6.258 -14.125 3.785 -10 1 C-6.381 -0.206 -3.808 -0.323 0 0 Z " fill="#000000" transform="translate(51,87)"/>
<path d="M0 0 C4.646 1.731 7.478 3.704 10 8 C11.206 12.468 11.37 15.91 9.875 20.312 C7.448 23.791 4.792 26.104 1 28 C-5.405 28.543 -8.809 27.868 -14 24 C-17.309 19.303 -17.529 15.553 -17 10 C-13.713 2.388 -7.943 -0.53 0 0 Z " fill="#000000" transform="translate(212,87)"/>
<path d="M0 0 C2.437 1.625 2.437 1.625 4 4 C4.606 7.636 4.472 9.283 2.438 12.375 C-0.899 14.6 -3.069 14.5 -7 14 C-8.938 13 -8.938 13 -10 11 C-10.53 7.42 -10.659 4.24 -8.938 1 C-5.821 -0.609 -3.437 -0.422 0 0 Z " fill="#000000" transform="translate(10,94)"/>
<path d="M0 0 C1.938 1 1.938 1 3 3 C3.53 6.58 3.659 9.76 1.938 13 C-1.179 14.609 -3.563 14.422 -7 14 C-9.438 12.375 -9.438 12.375 -11 10 C-11.606 6.364 -11.472 4.717 -9.438 1.625 C-6.101 -0.6 -3.931 -0.5 0 0 Z " fill="#000000" transform="translate(253,94)"/>
<path d="M0 0 C5.743 4.166 9.009 8.241 10.188 15.312 C10.384 22.372 8.953 27.991 4.188 33.312 C-0.816 37.695 -6.153 39.698 -12.812 39.312 C-18.981 38.148 -23.444 35.785 -27.812 31.312 C-31.294 26.03 -32.526 20.174 -31.375 13.945 C-29.622 8.029 -27.114 3.251 -21.617 0.023 C-14.3 -3.349 -7.279 -3.734 0 0 Z " fill="#000000" transform="translate(111.8125,136.6875)"/>
<path d="M0 0 C4.949 4.432 7.502 9.65 7.891 16.277 C7.485 23.296 4.726 28.722 -0.242 33.574 C-5.525 37.056 -11.38 38.288 -17.609 37.137 C-23.526 35.384 -28.304 32.875 -31.531 27.379 C-34.343 21.277 -34.942 16.09 -33.242 9.574 C-31.236 4.286 -27.878 0.756 -23.242 -2.426 C-15.319 -5.778 -7.02 -4.959 0 0 Z " fill="#000000" transform="translate(168.2421875,138.42578125)"/>
<path d="M0 0 C3.933 1.36 6.517 3.314 8.938 6.75 C10.552 11.69 10.936 15.832 8.812 20.75 C6.311 23.855 3.573 26.213 0 28 C-5.243 28.403 -8.561 27.861 -13 25 C-16.829 21.482 -17.755 18.243 -18.098 13.211 C-17.948 9.824 -16.925 7.76 -15 5 C-10.149 0.622 -6.561 -0.841 0 0 Z " fill="#000000" transform="translate(51,141)"/>
<path d="M0 0 C3.837 2.027 6.998 4.101 9 8 C10.103 12.471 10.367 15.918 8.875 20.312 C6.158 24.207 3.514 26.495 -1 28 C-6.734 28.541 -9.508 27.574 -14 24 C-17.403 21.066 -17.935 18.783 -18.312 14.25 C-18.233 9.459 -16.861 6.84 -14 3 C-9.597 -0.102 -5.256 -0.955 0 0 Z " fill="#000000" transform="translate(213,141)"/>
<path d="M0 0 C2.437 1.625 2.437 1.625 4 4 C4.606 7.636 4.472 9.283 2.438 12.375 C-0.899 14.6 -3.069 14.5 -7 14 C-8.938 13 -8.938 13 -10 11 C-10.53 7.42 -10.659 4.24 -8.938 1 C-5.821 -0.609 -3.437 -0.422 0 0 Z " fill="#000000" transform="translate(10,148)"/>
<path d="M0 0 C1.938 1 1.938 1 3 3 C3.53 6.58 3.659 9.76 1.938 13 C-1.179 14.609 -3.563 14.422 -7 14 C-9.438 12.375 -9.438 12.375 -11 10 C-11.606 6.364 -11.472 4.717 -9.438 1.625 C-6.101 -0.6 -3.931 -0.5 0 0 Z " fill="#000000" transform="translate(253,148)"/>
<path d="M0 0 C3.933 1.36 6.517 3.314 8.938 6.75 C10.221 10.677 10.742 13.915 10 18 C7.973 21.837 5.899 24.998 2 27 C-2.471 28.103 -5.918 28.367 -10.312 26.875 C-13.934 24.348 -16.386 22.276 -17.57 17.887 C-18.383 12.743 -18.07 9.4 -15 5 C-10.149 0.622 -6.561 -0.841 0 0 Z " fill="#000000" transform="translate(51,195)"/>
<path d="M0 0 C4.433 2.268 6.496 4.633 8.027 9.316 C8.745 13.799 8.42 16.573 6.277 20.629 C2.909 24.652 0.858 26.363 -4.348 27.191 C-8.701 27.535 -11.32 26.864 -14.973 24.316 C-18.374 20.639 -19.811 18.03 -20.285 13.004 C-19.855 7.931 -17.656 5.27 -14.41 1.504 C-10.499 -1.727 -4.608 -1.597 0 0 Z " fill="#000000" transform="translate(106.97265625,195.68359375)"/>
<path d="M0 0 C3.105 2.501 5.463 5.239 7.25 8.812 C7.653 14.056 7.111 17.374 4.25 21.812 C0.732 25.641 -2.507 26.567 -7.539 26.91 C-10.926 26.761 -12.99 25.738 -15.75 23.812 C-19.622 19.522 -21.123 16.846 -21.027 10.977 C-20.531 7.104 -19.093 4.957 -16.75 1.812 C-11.529 -1.866 -5.931 -2.561 0 0 Z " fill="#000000" transform="translate(161.75,196.1875)"/>
<path d="M0 0 C3.837 2.027 6.998 4.101 9 8 C10.103 12.471 10.367 15.918 8.875 20.312 C6.348 23.934 4.276 26.386 -0.113 27.57 C-5.257 28.383 -8.6 28.07 -13 25 C-16.872 20.709 -18.373 18.033 -18.277 12.164 C-17.781 8.292 -16.343 6.144 -14 3 C-9.597 -0.102 -5.256 -0.955 0 0 Z " fill="#000000" transform="translate(213,195)"/>
<path d="M0 0 C2.375 1.562 2.375 1.562 4 4 C4.422 7.437 4.609 9.821 3 12.938 C-0.24 14.659 -3.42 14.53 -7 14 C-9 12.938 -9 12.938 -10 11 C-10.5 7.069 -10.6 4.899 -8.375 1.562 C-5.283 -0.472 -3.636 -0.606 0 0 Z " fill="#000000" transform="translate(104,242)"/>
<path d="M0 0 C2.375 1.562 2.375 1.562 4 4 C4.422 7.437 4.609 9.821 3 12.938 C-0.24 14.659 -3.42 14.53 -7 14 C-9 12.938 -9 12.938 -10 11 C-10.5 7.069 -10.6 4.899 -8.375 1.562 C-5.283 -0.472 -3.636 -0.606 0 0 Z " fill="#000000" transform="translate(158,242)"/>
</svg>
