<?xml version="1.0" encoding="UTF-8"?>
<!-- Generator: visioncortex VTracer 0.6.12 -->
<svg version="1.1" xmlns="http://www.w3.org/2000/svg" width="800" height="800">
<path d="M0 0 C8.279 5.807 12.835 12.504 16 22 C16.111 24.548 16.168 27.069 16.177 29.617 C16.184 30.392 16.19 31.166 16.197 31.964 C16.217 34.529 16.228 37.095 16.238 39.66 C16.242 40.539 16.246 41.417 16.251 42.322 C16.271 46.976 16.286 51.63 16.295 56.284 C16.306 61.073 16.341 65.862 16.38 70.651 C16.407 74.348 16.415 78.044 16.418 81.741 C16.423 83.505 16.435 85.27 16.453 87.034 C16.575 99.298 15.79 109.207 7.836 119.18 C1.17 125.789 -7.445 129.27 -16.75 129.375 C-26.509 129.211 -35.045 126.014 -42 119 C-47.524 111.463 -50.302 104.427 -50.291 95.042 C-50.297 94.267 -50.304 93.492 -50.311 92.694 C-50.33 90.145 -50.334 87.596 -50.336 85.047 C-50.342 83.263 -50.349 81.48 -50.356 79.696 C-50.368 75.961 -50.372 72.225 -50.371 68.49 C-50.37 63.724 -50.398 58.959 -50.432 54.194 C-50.454 50.51 -50.458 46.826 -50.457 43.142 C-50.46 41.386 -50.469 39.63 -50.484 37.875 C-50.594 24.17 -49.351 14.547 -39.512 4.203 C-28.44 -5.508 -12.917 -7.006 0 0 Z " fill="#000000" transform="translate(417,4)"/>
<path d="M0 0 C3.664 3.377 7.205 6.874 10.73 10.395 C11.734 11.392 12.739 12.389 13.743 13.387 C15.833 15.465 17.919 17.547 20.003 19.632 C22.652 22.281 25.314 24.917 27.981 27.548 C30.054 29.6 32.119 31.66 34.181 33.723 C35.158 34.698 36.138 35.67 37.122 36.638 C46.415 45.797 54.221 55.18 54.375 68.75 C54.162 79.405 50.826 86.1 43.516 93.797 C35.81 100.546 27.637 102.376 17.641 102.273 C3.481 101.21 -6.256 90.061 -15.73 80.57 C-16.734 79.57 -17.738 78.571 -18.743 77.571 C-20.833 75.488 -22.919 73.402 -25.003 71.313 C-27.653 68.656 -30.315 66.011 -32.981 63.369 C-35.053 61.312 -37.118 59.248 -39.181 57.182 C-40.159 56.204 -41.139 55.229 -42.122 54.257 C-52.026 44.443 -59.318 35.587 -60.164 21.211 C-59.804 11.602 -55.652 3.074 -48.688 -3.5 C-32.371 -16.713 -14.988 -12.62 0 0 Z " fill="#000000" transform="translate(167,119)"/>
<path d="M0 0 C7.289 6.338 11.62 13.746 12.938 23.312 C13.632 36.416 8.045 45.267 -0.463 54.743 C-3.174 57.583 -5.929 60.374 -8.711 63.145 C-9.73 64.168 -10.748 65.191 -11.766 66.215 C-13.884 68.342 -16.007 70.463 -18.135 72.581 C-20.838 75.273 -23.526 77.981 -26.209 80.693 C-28.302 82.805 -30.405 84.907 -32.51 87.007 C-33.504 88 -34.495 88.997 -35.483 89.998 C-44.705 99.321 -54.104 107.221 -67.75 107.375 C-78.405 107.162 -85.1 103.826 -92.797 96.516 C-99.546 88.81 -101.376 80.637 -101.273 70.641 C-100.21 56.481 -89.061 46.744 -79.57 37.27 C-78.57 36.266 -77.571 35.262 -76.571 34.257 C-74.488 32.167 -72.402 30.081 -70.313 27.997 C-67.656 25.347 -65.011 22.685 -62.369 20.019 C-60.312 17.947 -58.248 15.882 -56.182 13.819 C-55.204 12.841 -54.229 11.861 -53.257 10.878 C-37.758 -4.763 -20.289 -13.497 0 0 Z " fill="#000000" transform="translate(680,114)"/>
<path d="M0 0 C0.56 0.435 1.12 0.869 1.697 1.317 C21.534 16.895 38.681 35.951 51 58 C51.21 58.371 51.21 58.371 52.272 60.248 C78.661 107.265 85.213 162.34 70.764 214.377 C63.734 238.506 52.51 261.19 37 281 C36.565 281.56 36.131 282.12 35.683 282.697 C20.105 302.534 1.049 319.681 -21 332 C-21.371 332.21 -21.371 332.21 -23.248 333.272 C-70.265 359.661 -125.34 366.213 -177.377 351.764 C-201.506 344.734 -224.19 333.51 -244 318 C-244.56 317.565 -245.12 317.131 -245.697 316.683 C-265.534 301.105 -282.681 282.049 -295 260 C-295.42 259.258 -295.84 258.517 -296.272 257.752 C-322.661 210.735 -329.213 155.66 -314.764 103.623 C-307.734 79.494 -296.51 56.81 -281 37 C-280.565 36.44 -280.131 35.88 -279.683 35.303 C-264.105 15.466 -245.049 -1.681 -223 -14 C-222.258 -14.42 -221.517 -14.84 -220.752 -15.272 C-151.591 -54.089 -62.958 -49.295 0 0 Z M-157 32 C-157.67 32.182 -158.34 32.364 -159.03 32.551 C-180.51 38.544 -199.169 50.544 -215 66 C-215.715 66.654 -216.431 67.307 -217.168 67.98 C-238.007 87.489 -251.624 118.876 -253.177 147.231 C-253.473 163.236 -253.352 178.477 -249 194 C-248.818 194.67 -248.636 195.34 -248.449 196.03 C-242.463 217.484 -230.473 236.204 -215 252 C-209.875 247.71 -205.077 243.218 -200.363 238.483 C-199.626 237.747 -198.889 237.011 -198.13 236.252 C-195.675 233.8 -193.224 231.343 -190.774 228.887 C-189.009 227.123 -187.245 225.358 -185.48 223.594 C-181.688 219.803 -177.898 216.01 -174.11 212.216 C-168.632 206.73 -163.152 201.247 -157.671 195.764 C-148.777 186.868 -139.885 177.97 -130.995 169.07 C-122.362 160.428 -113.728 151.787 -105.093 143.147 C-104.56 142.614 -104.027 142.081 -103.478 141.532 C-100.805 138.857 -98.131 136.183 -95.458 133.508 C-73.302 111.342 -51.15 89.172 -29 67 C-29.954 65.875 -30.91 64.751 -31.866 63.628 C-32.398 63.002 -32.93 62.376 -33.478 61.731 C-51.068 41.719 -81.333 31.292 -107 28 C-123.936 27.072 -140.599 27.402 -157 32 Z " fill="#000000" transform="translate(522,241)"/>
<path d="M0 0 C0.387 -0.003 0.387 -0.003 2.347 -0.02 C4.912 -0.04 7.477 -0.051 10.043 -0.061 C10.921 -0.065 11.8 -0.069 12.705 -0.074 C17.359 -0.094 22.012 -0.109 26.667 -0.118 C31.456 -0.129 36.244 -0.164 41.033 -0.203 C44.73 -0.23 48.427 -0.238 52.124 -0.241 C53.888 -0.246 55.652 -0.258 57.416 -0.276 C69.681 -0.398 79.589 0.387 89.562 8.341 C96.172 15.007 99.652 23.622 99.758 32.927 C99.593 42.686 96.397 51.222 89.383 58.177 C81.846 63.701 74.81 66.479 65.425 66.468 C65.037 66.471 65.037 66.471 63.077 66.488 C60.527 66.507 57.979 66.511 55.429 66.513 C53.646 66.519 51.862 66.526 50.079 66.533 C46.343 66.545 42.608 66.549 38.872 66.548 C34.107 66.547 29.342 66.575 24.576 66.609 C20.892 66.631 17.208 66.635 13.524 66.634 C11.769 66.637 10.013 66.646 8.257 66.661 C-5.447 66.771 -15.071 65.528 -25.414 55.689 C-31.982 48.201 -34.025 40.132 -33.883 30.4 C-33.046 20.243 -28.257 12.761 -20.617 6.177 C-13.868 1.934 -7.942 0.029 0 0 Z " fill="#000000" transform="translate(33.617431640625,366.822998046875)"/>
<path d="M0 0 C0.775 -0.007 1.55 -0.013 2.348 -0.02 C4.897 -0.039 7.446 -0.043 9.995 -0.045 C11.779 -0.052 13.562 -0.059 15.346 -0.066 C19.081 -0.078 22.817 -0.081 26.552 -0.08 C31.318 -0.08 36.083 -0.107 40.848 -0.142 C44.532 -0.164 48.216 -0.168 51.9 -0.167 C53.656 -0.169 55.412 -0.178 57.167 -0.194 C70.872 -0.304 80.495 0.94 90.839 10.779 C97.407 18.266 99.45 26.336 99.308 36.068 C98.47 46.224 93.682 53.706 86.042 60.291 C79.292 64.533 73.366 66.438 65.425 66.468 C65.037 66.471 65.037 66.471 63.078 66.487 C60.513 66.507 57.947 66.519 55.382 66.529 C54.943 66.531 54.943 66.531 52.72 66.541 C48.066 66.562 43.412 66.576 38.758 66.586 C33.969 66.597 29.18 66.631 24.391 66.671 C20.694 66.697 16.998 66.705 13.301 66.709 C11.537 66.714 9.772 66.725 8.008 66.744 C-4.256 66.865 -14.165 66.08 -24.138 58.126 C-30.747 51.46 -34.228 42.845 -34.333 33.541 C-34.169 23.781 -30.972 15.245 -23.958 8.291 C-16.421 2.767 -9.385 -0.012 0 0 Z " fill="#000000" transform="translate(700.9580078125,366.70947265625)"/>
<path d="M0 0 C8.226 5.931 12.818 12.453 16 22 C17.112 36.014 13.912 44.463 5 55 C1.611 58.665 -1.898 62.204 -5.43 65.73 C-6.43 66.734 -7.429 67.738 -8.429 68.743 C-10.512 70.833 -12.598 72.919 -14.687 75.003 C-17.344 77.653 -19.989 80.315 -22.631 82.981 C-24.688 85.053 -26.752 87.118 -28.818 89.181 C-29.796 90.159 -30.771 91.139 -31.743 92.122 C-41.557 102.026 -50.413 109.318 -64.789 110.164 C-74.398 109.804 -82.926 105.652 -89.5 98.688 C-95.508 91.205 -98.287 83.649 -98 74 C-96.353 59.389 -86.272 49.799 -76.289 39.855 C-75.27 38.832 -74.252 37.809 -73.234 36.785 C-71.116 34.658 -68.993 32.537 -66.865 30.419 C-64.162 27.727 -61.474 25.019 -58.791 22.307 C-56.698 20.195 -54.595 18.093 -52.49 15.993 C-51.496 15 -50.505 14.003 -49.517 13.002 C-36.297 -0.362 -18.405 -11.212 0 0 Z " fill="#000000" transform="translate(205,583)"/>
<path d="M0 0 C8.538 4.709 15.35 11.941 22.177 18.779 C23.18 19.779 24.185 20.779 25.189 21.778 C27.279 23.861 29.365 25.947 31.449 28.036 C34.1 30.693 36.761 33.338 39.427 35.98 C41.499 38.037 43.564 40.101 45.627 42.167 C46.605 43.145 47.585 44.12 48.568 45.093 C58.472 54.906 65.765 63.762 66.61 78.138 C66.25 87.747 62.098 96.275 55.134 102.849 C47.652 108.857 40.095 111.636 30.446 111.349 C15.835 109.702 6.245 99.622 -3.698 89.638 C-4.722 88.619 -5.745 87.601 -6.769 86.583 C-8.896 84.465 -11.017 82.342 -13.135 80.214 C-15.827 77.511 -18.535 74.823 -21.247 72.14 C-23.359 70.047 -25.461 67.944 -27.56 65.839 C-28.554 64.845 -29.551 63.854 -30.552 62.866 C-39.875 53.644 -47.775 44.246 -47.929 30.599 C-47.716 19.945 -44.379 13.25 -37.07 5.552 C-27 -3.266 -12.225 -5.936 0 0 Z " fill="#000000" transform="translate(626.5538787841797,581.6508483886719)"/>
<path d="M0 0 C8.59 4.926 13.338 12.564 16 22 C16.193 24.688 16.294 27.272 16.291 29.958 C16.297 30.733 16.304 31.508 16.311 32.306 C16.33 34.855 16.334 37.404 16.336 39.953 C16.342 41.737 16.349 43.52 16.356 45.304 C16.368 49.039 16.372 52.775 16.371 56.51 C16.37 61.276 16.398 66.041 16.432 70.806 C16.454 74.49 16.458 78.174 16.457 81.858 C16.46 83.614 16.469 85.37 16.484 87.125 C16.594 100.83 15.351 110.453 5.512 120.797 C-1.976 127.365 -10.045 129.408 -19.777 129.266 C-29.934 128.428 -37.416 123.64 -44 116 C-48.243 109.25 -50.148 103.324 -50.177 95.383 C-50.184 94.608 -50.19 93.834 -50.197 93.036 C-50.217 90.471 -50.228 87.905 -50.238 85.34 C-50.242 84.461 -50.246 83.583 -50.251 82.678 C-50.271 78.024 -50.286 73.37 -50.295 68.716 C-50.306 63.927 -50.341 59.138 -50.38 54.349 C-50.407 50.652 -50.415 46.956 -50.418 43.259 C-50.423 41.495 -50.435 39.73 -50.453 37.966 C-50.575 25.702 -49.79 15.793 -41.836 5.82 C-30.688 -5.233 -13.66 -7.615 0 0 Z " fill="#000000" transform="translate(417,671)"/>
</svg>
