<?xml version="1.0" encoding="UTF-8"?>
<!-- Generator: visioncortex VTracer 0.6.12 -->
<svg version="1.1" xmlns="http://www.w3.org/2000/svg" width="682" height="681">
<path d="M0 0 C4.589 0.009 9.178 -0.005 13.767 -0.016 C22.734 -0.034 31.701 -0.03 40.669 -0.018 C47.962 -0.009 55.256 -0.008 62.549 -0.012 C63.591 -0.013 64.632 -0.014 65.705 -0.014 C67.821 -0.016 69.938 -0.017 72.054 -0.018 C91.858 -0.029 111.662 -0.016 131.466 0.005 C148.427 0.023 165.388 0.02 182.349 0.001 C202.087 -0.02 221.824 -0.028 241.561 -0.016 C243.67 -0.015 245.778 -0.014 247.886 -0.012 C248.404 -0.012 248.404 -0.012 251.028 -0.01 C258.306 -0.007 265.583 -0.013 272.86 -0.022 C281.74 -0.034 290.619 -0.03 299.498 -0.009 C304.021 0.001 308.543 0.006 313.066 -0.008 C355.574 -0.123 355.574 -0.123 370.78 8.335 C371.432 8.679 372.084 9.023 372.756 9.378 C378.025 12.234 382.697 15.588 387.217 19.523 C387.804 19.968 388.39 20.412 388.995 20.871 C404.372 32.83 412.602 52.738 415.217 71.523 C415.82 78.586 415.689 85.668 415.608 92.749 C415.601 94.719 415.595 96.689 415.591 98.658 C415.576 103.778 415.537 108.897 415.492 114.016 C415.451 119.266 415.433 124.515 415.413 129.765 C415.37 140.018 415.302 150.27 415.217 160.523 C415.755 160.518 415.755 160.518 418.475 160.496 C428.682 160.414 438.89 160.355 449.097 160.316 C454.343 160.295 459.589 160.267 464.835 160.221 C469.912 160.177 474.988 160.154 480.065 160.143 C481.988 160.136 483.91 160.122 485.832 160.1 C501.103 159.934 517.105 160.729 530.78 168.335 C531.432 168.679 532.084 169.023 532.756 169.378 C538.025 172.234 542.697 175.588 547.217 179.523 C547.511 179.745 547.511 179.745 548.995 180.871 C563.193 191.914 572.135 210.945 574.86 228.373 C576.245 240.571 575.776 253.045 575.74 265.305 C575.731 269.895 575.745 274.484 575.756 279.073 C575.774 288.04 575.77 297.007 575.759 305.974 C575.75 313.268 575.748 320.561 575.753 327.855 C575.753 328.896 575.754 329.937 575.755 331.011 C575.756 333.127 575.757 335.243 575.758 337.359 C575.77 357.163 575.757 376.967 575.735 396.772 C575.717 413.733 575.72 430.694 575.739 447.655 C575.76 467.392 575.769 487.129 575.756 506.867 C575.755 508.975 575.754 511.083 575.753 513.191 C575.752 514.228 575.751 515.265 575.751 516.334 C575.747 523.611 575.753 530.888 575.763 538.166 C575.774 547.045 575.771 555.924 575.749 564.803 C575.739 569.326 575.735 573.849 575.748 578.372 C575.863 620.879 575.863 620.879 567.405 636.085 C567.233 636.411 567.233 636.411 566.362 638.062 C563.507 643.331 560.153 648.002 556.217 652.523 C555.995 652.816 555.995 652.816 554.87 654.3 C543.827 668.498 524.796 677.44 507.368 680.165 C495.169 681.55 482.695 681.082 470.435 681.046 C465.846 681.037 461.257 681.051 456.668 681.062 C447.701 681.079 438.733 681.076 429.766 681.064 C422.473 681.055 415.179 681.054 407.886 681.058 C406.844 681.059 405.803 681.059 404.73 681.06 C402.614 681.061 400.497 681.063 398.381 681.064 C378.577 681.075 358.773 681.062 338.969 681.041 C322.008 681.023 305.047 681.026 288.086 681.044 C268.348 681.066 248.611 681.074 228.873 681.062 C226.765 681.061 224.657 681.059 222.549 681.058 C221.512 681.058 220.475 681.057 219.407 681.056 C212.129 681.053 204.852 681.059 197.574 681.068 C188.695 681.079 179.816 681.076 170.937 681.055 C166.414 681.045 161.892 681.04 157.369 681.054 C114.861 681.168 114.861 681.168 99.655 672.71 C99.329 672.538 99.329 672.538 97.679 671.668 C92.409 668.812 87.738 665.458 83.217 661.523 C82.924 661.301 82.924 661.301 81.44 660.175 C66.063 648.215 57.833 628.308 55.217 609.523 C54.615 602.459 54.746 595.378 54.827 588.296 C54.834 586.327 54.84 584.357 54.844 582.387 C54.859 577.268 54.898 572.149 54.943 567.03 C54.984 561.78 55.002 556.53 55.022 551.281 C55.065 541.028 55.133 530.775 55.217 520.523 C54.142 520.532 53.067 520.541 51.96 520.55 C41.752 520.631 31.545 520.691 21.338 520.73 C16.092 520.751 10.846 520.779 5.6 520.825 C0.523 520.869 -4.553 520.892 -9.631 520.902 C-11.553 520.91 -13.475 520.924 -15.397 520.946 C-30.668 521.112 -46.67 520.317 -60.345 512.71 C-60.997 512.366 -61.649 512.022 -62.321 511.668 C-67.591 508.812 -72.262 505.458 -76.783 501.523 C-77.369 501.078 -77.956 500.633 -78.56 500.175 C-92.758 489.132 -101.7 470.101 -104.425 452.673 C-105.81 440.475 -105.342 428.001 -105.305 415.74 C-105.296 411.151 -105.31 406.562 -105.321 401.973 C-105.339 393.006 -105.335 384.039 -105.324 375.072 C-105.315 367.778 -105.313 360.485 -105.318 353.191 C-105.318 352.67 -105.318 352.67 -105.32 350.035 C-105.321 347.919 -105.322 345.803 -105.324 343.687 C-105.335 323.882 -105.322 304.078 -105.3 284.274 C-105.283 267.313 -105.286 250.352 -105.304 233.391 C-105.326 213.654 -105.334 193.916 -105.322 174.179 C-105.32 172.071 -105.319 169.963 -105.318 167.855 C-105.317 166.818 -105.317 165.781 -105.316 164.712 C-105.313 157.435 -105.318 150.157 -105.328 142.88 C-105.339 134.001 -105.336 125.122 -105.315 116.243 C-105.304 111.72 -105.3 107.197 -105.313 102.674 C-105.428 60.167 -105.428 60.167 -96.97 44.96 C-96.626 44.308 -96.282 43.656 -95.928 42.984 C-93.072 37.715 -89.718 33.043 -85.783 28.523 C-85.338 27.936 -84.893 27.35 -84.435 26.746 C-73.392 12.547 -54.361 3.606 -36.933 0.881 C-24.734 -0.504 -12.261 -0.036 0 0 Z M-24.783 80.523 C-24.783 199.323 -24.783 318.123 -24.783 440.523 C1.617 440.523 28.017 440.523 55.217 440.523 C55.227 434.286 55.236 428.049 55.246 421.623 C55.28 400.984 55.335 380.344 55.401 359.705 C55.441 347.195 55.473 334.685 55.488 322.175 C55.501 311.265 55.529 300.355 55.572 289.444 C55.595 283.674 55.61 277.903 55.609 272.132 C55.609 266.687 55.627 261.242 55.659 255.797 C55.667 253.811 55.669 251.826 55.663 249.84 C55.626 234.62 56.454 218.583 64.03 204.96 C64.373 204.309 64.717 203.657 65.07 202.986 C67.924 197.717 71.296 193.053 75.217 188.523 C75.939 187.533 76.661 186.543 77.405 185.523 C89.812 171.035 110.096 162.993 128.694 161.297 C134.942 160.934 141.19 160.959 147.446 160.977 C149.508 160.968 151.57 160.958 153.632 160.946 C159.17 160.918 164.708 160.914 170.246 160.915 C176.055 160.912 181.865 160.887 187.674 160.863 C198.649 160.823 209.624 160.803 220.599 160.789 C233.104 160.774 245.61 160.735 258.116 160.695 C283.816 160.613 309.517 160.561 335.217 160.523 C335.217 134.123 335.217 107.723 335.217 80.523 C216.417 80.523 97.617 80.523 -24.783 80.523 Z M135.217 240.523 C135.217 359.323 135.217 478.123 135.217 600.523 C254.017 600.523 372.817 600.523 495.217 600.523 C495.217 481.723 495.217 362.923 495.217 240.523 C376.417 240.523 257.617 240.523 135.217 240.523 Z " fill="#000000" transform="translate(105.78256845474243,0.47710132598876953)"/>
</svg>
