<?xml version="1.0" encoding="UTF-8"?>
<!-- Generator: visioncortex VTracer 0.6.12 -->
<svg version="1.1" xmlns="http://www.w3.org/2000/svg" width="667" height="667">
<path d="M0 0 C1.688 -0.006 3.376 -0.013 5.064 -0.02 C9.627 -0.038 14.189 -0.043 18.752 -0.044 C21.611 -0.045 24.469 -0.05 27.328 -0.055 C37.327 -0.073 47.325 -0.082 57.323 -0.08 C66.603 -0.079 75.882 -0.1 85.161 -0.132 C93.16 -0.158 101.159 -0.168 109.157 -0.167 C113.92 -0.167 118.683 -0.172 123.446 -0.194 C127.934 -0.213 132.421 -0.213 136.908 -0.198 C138.541 -0.196 140.174 -0.201 141.807 -0.213 C167.433 -0.393 192.301 8.387 211.154 26.162 C221.66 37.301 230.073 52.255 233.162 67.291 C233.774 67.277 234.385 67.264 235.015 67.251 C256.629 66.991 277.808 72.149 295.162 85.291 C295.717 85.71 296.272 86.129 296.844 86.561 C317.834 102.713 330.882 123.937 334.974 150.166 C335.086 150.882 335.198 151.598 335.313 152.336 C338.054 172.61 337.308 193.343 337.293 213.754 C337.29 218.262 337.294 222.77 337.297 227.278 C337.301 236.083 337.3 244.887 337.297 253.692 C337.295 260.856 337.295 268.019 337.296 275.182 C337.296 275.694 337.296 275.694 337.296 278.284 C337.296 280.364 337.297 282.445 337.297 284.525 C337.3 303.984 337.297 323.443 337.291 342.902 C337.287 359.558 337.288 376.213 337.292 392.869 C337.298 412.262 337.3 431.655 337.297 451.048 C337.296 453.12 337.296 455.193 337.296 457.265 C337.296 458.285 337.295 459.304 337.295 460.354 C337.294 467.499 337.296 474.644 337.298 481.789 C337.301 490.51 337.3 499.231 337.295 507.952 C337.292 512.393 337.291 516.833 337.295 521.273 C337.352 604.605 337.352 604.605 312.162 632.291 C311.69 632.811 311.218 633.332 310.732 633.869 C291.434 654.911 267.589 664.595 239.162 666.291 C229.033 666.629 218.894 666.569 208.761 666.552 C204.663 666.547 200.565 666.554 196.466 666.56 C188.462 666.569 180.457 666.567 172.452 666.561 C165.941 666.557 159.429 666.556 152.917 666.558 C152.452 666.558 152.452 666.558 150.098 666.559 C148.207 666.56 146.316 666.56 144.426 666.561 C126.739 666.567 109.052 666.56 91.366 666.549 C76.224 666.54 61.082 666.542 45.94 666.551 C28.312 666.562 10.684 666.566 -6.943 666.56 C-8.827 666.559 -10.71 666.559 -12.594 666.558 C-13.057 666.558 -13.057 666.558 -15.401 666.557 C-21.897 666.556 -28.393 666.558 -34.889 666.563 C-42.817 666.569 -50.744 666.567 -58.672 666.557 C-62.708 666.551 -66.745 666.549 -70.782 666.556 C-106.811 666.61 -138.468 664.531 -165.838 638.291 C-166.599 637.593 -167.359 636.896 -168.143 636.177 C-190.862 614.677 -195.697 585.659 -196.747 555.736 C-197.074 543.394 -196.978 531.041 -196.969 518.696 C-196.967 514.187 -196.97 509.678 -196.973 505.169 C-196.977 496.364 -196.976 487.558 -196.973 478.753 C-196.971 471.591 -196.971 464.428 -196.972 457.265 C-196.972 456.241 -196.972 455.218 -196.972 454.163 C-196.973 452.082 -196.973 450.002 -196.973 447.921 C-196.976 428.464 -196.973 409.007 -196.968 389.55 C-196.963 372.894 -196.964 356.238 -196.969 339.581 C-196.974 320.187 -196.976 300.793 -196.973 281.398 C-196.973 279.326 -196.972 277.254 -196.972 275.182 C-196.972 274.163 -196.972 273.144 -196.971 272.093 C-196.971 264.948 -196.972 257.802 -196.974 250.656 C-196.977 241.936 -196.976 233.216 -196.971 224.496 C-196.969 220.056 -196.967 215.616 -196.971 211.176 C-197.024 133.627 -197.024 133.627 -177.838 108.291 C-177.629 108.013 -177.629 108.013 -176.568 106.608 C-158.929 83.688 -136.026 71.543 -107.557 67.736 C-102.648 67.181 -97.772 67.185 -92.838 67.291 C-92.711 66.641 -92.584 65.992 -92.453 65.323 C-88.48 46.297 -75.801 28.418 -60.061 17.349 C-41.127 5.254 -22.449 -0.016 0 0 Z M-23.151 73.103 C-23.992 73.955 -24.834 74.807 -25.701 75.685 C-37.924 90.589 -29.838 121.073 -29.838 133.291 C36.162 133.291 102.162 133.291 170.162 133.291 C170.162 79.892 170.162 79.892 162.912 72.541 C162.185 71.783 161.458 71.025 160.709 70.244 C155.783 66.466 150.266 66.04 144.217 66.037 C143.886 66.035 143.886 66.035 142.209 66.027 C140.008 66.019 137.808 66.025 135.607 66.032 C134.021 66.029 132.436 66.025 130.85 66.021 C126.557 66.012 122.263 66.016 117.97 66.022 C113.47 66.027 108.971 66.022 104.471 66.019 C96.915 66.015 89.36 66.02 81.804 66.03 C73.078 66.041 64.351 66.037 55.624 66.026 C48.122 66.017 40.621 66.016 33.119 66.021 C28.643 66.024 24.166 66.025 19.69 66.018 C15.481 66.012 11.272 66.016 7.063 66.028 C5.521 66.03 3.979 66.03 2.437 66.025 C0.327 66.02 -1.783 66.027 -3.893 66.037 C-5.072 66.037 -6.252 66.038 -7.466 66.039 C-14.263 66.546 -18.426 68.202 -23.151 73.103 Z M-120.838 142.291 C-130.912 154.147 -129.988 168.735 -129.972 183.433 C-129.974 185.077 -129.976 186.722 -129.979 188.366 C-129.985 192.87 -129.985 197.373 -129.984 201.877 C-129.983 206.74 -129.989 211.603 -129.994 216.467 C-130.002 225.989 -130.005 235.511 -130.005 245.033 C-130.006 252.775 -130.008 260.517 -130.011 268.259 C-130.02 290.219 -130.024 312.18 -130.024 334.141 C-130.024 335.324 -130.023 336.507 -130.023 337.727 C-130.023 338.911 -130.023 340.096 -130.023 341.317 C-130.023 360.516 -130.032 379.716 -130.047 398.915 C-130.061 418.64 -130.068 438.365 -130.067 458.089 C-130.067 469.159 -130.069 480.228 -130.08 491.298 C-130.089 500.723 -130.091 510.148 -130.085 519.572 C-130.081 524.378 -130.081 529.184 -130.09 533.989 C-130.098 538.395 -130.096 542.8 -130.088 547.206 C-130.086 548.793 -130.088 550.381 -130.094 551.968 C-130.187 580.253 -130.187 580.253 -120.135 591.134 C-105.009 605.034 -77.597 600.438 -58.669 600.421 C-54.86 600.419 -51.051 600.422 -47.242 600.425 C-39.8 600.43 -32.359 600.429 -24.917 600.426 C-18.864 600.424 -12.811 600.423 -6.758 600.424 C-6.326 600.424 -6.326 600.424 -4.138 600.425 C-2.381 600.425 -0.624 600.425 1.134 600.426 C17.573 600.429 34.012 600.425 50.451 600.42 C64.527 600.416 78.603 600.416 92.678 600.421 C109.063 600.426 125.447 600.428 141.831 600.425 C143.581 600.425 145.331 600.425 147.082 600.424 C147.512 600.424 147.512 600.424 149.691 600.424 C155.73 600.423 161.769 600.424 167.808 600.427 C175.177 600.43 182.546 600.429 189.915 600.424 C193.668 600.421 197.421 600.42 201.174 600.423 C250.901 600.463 250.901 600.463 261.162 590.291 C270.917 578.195 270.312 564.972 270.296 550.148 C270.297 548.504 270.3 546.86 270.302 545.215 C270.309 540.711 270.308 536.208 270.307 531.704 C270.307 526.841 270.313 521.978 270.317 517.114 C270.326 507.592 270.328 498.07 270.329 488.548 C270.329 480.806 270.331 473.064 270.335 465.322 C270.343 443.362 270.348 421.401 270.347 399.44 C270.347 398.257 270.347 397.074 270.347 395.854 C270.347 394.67 270.347 393.485 270.347 392.264 C270.347 373.065 270.356 353.865 270.37 334.666 C270.385 314.941 270.392 295.217 270.391 275.492 C270.39 264.422 270.393 253.353 270.404 242.283 C270.413 232.858 270.415 223.433 270.408 214.009 C270.405 209.203 270.405 204.397 270.414 199.592 C270.422 195.186 270.42 190.781 270.411 186.375 C270.41 184.788 270.412 183.2 270.417 181.613 C270.465 167.26 270.359 154.087 260.912 142.541 C254.9 137.622 248.862 134.222 241.023 134.268 C239.749 134.275 238.475 134.283 237.162 134.291 C237.147 135.323 237.133 136.356 237.118 137.421 C237.059 141.303 236.982 145.185 236.899 149.067 C236.866 150.738 236.838 152.409 236.815 154.08 C236.602 169.246 235.675 180.967 224.349 192.041 C217.576 196.822 210.621 199.409 202.298 199.422 C201.819 199.424 201.819 199.424 199.396 199.434 C198.352 199.433 197.308 199.432 196.233 199.431 C195.117 199.434 194.002 199.437 192.853 199.44 C189.107 199.449 185.362 199.45 181.616 199.452 C178.934 199.456 176.252 199.461 173.569 199.467 C166.276 199.48 158.982 199.486 151.689 199.491 C147.132 199.493 142.575 199.498 138.018 199.502 C125.394 199.514 112.77 199.525 100.146 199.528 C99.742 199.528 99.742 199.528 97.698 199.529 C97.293 199.529 97.293 199.529 95.245 199.529 C93.604 199.53 91.964 199.53 90.323 199.531 C89.51 199.531 88.696 199.531 87.858 199.531 C74.68 199.535 61.503 199.553 48.325 199.576 C34.786 199.6 21.247 199.612 7.709 199.613 C0.111 199.614 -7.487 199.62 -15.084 199.638 C-21.555 199.654 -28.027 199.659 -34.498 199.651 C-37.796 199.647 -41.095 199.649 -44.393 199.662 C-47.978 199.674 -51.562 199.668 -55.147 199.658 C-55.662 199.662 -55.662 199.662 -58.27 199.682 C-68.869 199.611 -77.94 197.648 -85.838 190.291 C-93.826 182.121 -95.911 173.025 -96.155 161.927 C-96.175 161.135 -96.196 160.343 -96.218 159.527 C-96.283 157.011 -96.342 154.495 -96.401 151.978 C-96.444 150.266 -96.487 148.555 -96.531 146.843 C-96.638 142.659 -96.74 138.475 -96.838 134.291 C-98.112 134.281 -99.385 134.271 -100.698 134.26 C-101.414 134.255 -102.13 134.249 -102.868 134.244 C-109.219 134.395 -116.06 138.303 -120.838 142.291 Z " fill="#000000" transform="translate(259.838134765625,-0.29052734375)"/>
<path d="M0 0 C1.02 -0.003 2.041 -0.007 3.092 -0.01 C6.457 -0.02 9.823 -0.022 13.188 -0.023 C15.535 -0.026 17.881 -0.029 20.227 -0.033 C25.144 -0.039 30.061 -0.041 34.978 -0.04 C41.265 -0.04 47.553 -0.054 53.841 -0.071 C58.687 -0.082 63.533 -0.084 68.38 -0.083 C70.697 -0.085 73.015 -0.089 75.332 -0.097 C78.58 -0.107 81.827 -0.104 85.074 -0.098 C86.024 -0.103 86.973 -0.109 87.951 -0.115 C99.204 -0.062 108.213 2.349 116.778 9.966 C123.402 16.958 125.932 24.067 126.231 33.645 C125.93 43.296 123.372 50.288 116.719 57.325 C107.782 65.507 99.641 67.446 87.83 67.436 C86.754 67.443 85.678 67.449 84.57 67.456 C81.025 67.475 77.48 67.479 73.934 67.481 C71.46 67.488 68.985 67.494 66.51 67.501 C61.325 67.513 56.141 67.517 50.956 67.516 C44.331 67.516 37.706 67.543 31.081 67.577 C25.969 67.6 20.858 67.604 15.747 67.603 C13.305 67.605 10.864 67.614 8.422 67.629 C4.998 67.649 1.574 67.643 -1.85 67.631 C-2.847 67.642 -3.843 67.654 -4.87 67.665 C-15.831 67.568 -24.224 64.18 -32.101 56.591 C-39.35 48.414 -40.765 40.663 -40.538 29.973 C-39.941 21.484 -36.488 15.324 -30.683 9.192 C-21.402 1.323 -11.679 -0.006 0 0 Z " fill="#000000" transform="translate(237.268798828125,265.854736328125)"/>
<path d="M0 0 C0.437 -0.003 0.437 -0.003 2.65 -0.016 C5.556 -0.031 8.462 -0.024 11.368 -0.016 C13.462 -0.022 15.555 -0.029 17.649 -0.037 C23.318 -0.055 28.987 -0.054 34.657 -0.048 C39.396 -0.045 44.135 -0.051 48.874 -0.057 C60.056 -0.071 71.239 -0.07 82.421 -0.058 C93.945 -0.047 105.468 -0.061 116.992 -0.088 C126.899 -0.11 136.806 -0.117 146.713 -0.111 C152.624 -0.107 158.535 -0.11 164.447 -0.127 C170.006 -0.142 175.565 -0.138 181.124 -0.12 C183.16 -0.116 185.196 -0.119 187.231 -0.13 C201.109 -0.196 212.198 0.487 222.861 10.388 C229.923 18.038 231.46 26.775 231.208 36.954 C230.297 45.954 225.854 53.778 219.236 59.888 C212.247 65.324 204.388 66.84 195.721 66.775 C194.847 66.781 193.972 66.786 193.071 66.792 C190.165 66.806 187.259 66.799 184.353 66.792 C182.26 66.797 180.166 66.804 178.073 66.813 C172.403 66.83 166.734 66.829 161.065 66.824 C156.326 66.82 151.587 66.827 146.848 66.833 C135.665 66.847 124.483 66.845 113.3 66.834 C101.777 66.822 90.253 66.836 78.729 66.863 C68.822 66.885 58.916 66.892 49.009 66.886 C43.097 66.883 37.186 66.885 31.275 66.902 C25.715 66.918 20.156 66.914 14.597 66.895 C12.561 66.891 10.526 66.894 8.49 66.905 C-5.388 66.971 -16.477 66.289 -27.139 56.388 C-34.201 48.737 -35.739 40.001 -35.487 29.821 C-34.576 20.821 -30.133 12.997 -23.514 6.888 C-16.525 1.452 -8.667 -0.065 0 0 Z " fill="#000000" transform="translate(232.13926696777344,399.61231994628906)"/>
</svg>
