<?xml version="1.0" encoding="UTF-8"?>
<!-- Generator: visioncortex VTracer 0.6.12 -->
<svg version="1.1" xmlns="http://www.w3.org/2000/svg" width="800" height="800">
<path d="M0 0 C140.334 -0.404 140.334 -0.404 194.061 -0.482 C208.11 -0.502 222.159 -0.523 236.209 -0.545 C237.908 -0.548 239.608 -0.551 241.307 -0.553 C268.402 -0.596 295.496 -0.671 322.591 -0.763 C350.436 -0.857 378.281 -0.919 406.127 -0.939 C410.059 -0.942 413.992 -0.945 417.924 -0.949 C418.698 -0.949 419.472 -0.95 420.27 -0.951 C432.731 -0.963 445.193 -1.009 457.655 -1.068 C470.181 -1.127 482.707 -1.15 495.234 -1.135 C502.022 -1.128 508.809 -1.139 515.597 -1.192 C521.81 -1.241 528.021 -1.243 534.234 -1.209 C536.483 -1.205 538.732 -1.218 540.981 -1.249 C557.813 -1.47 557.813 -1.47 563.243 2.179 C565.514 4.677 567.236 7.132 569 10 C570.172 11.243 571.375 12.46 572.625 13.625 C575.677 16.62 578.46 19.793 581.25 23.031 C582.938 24.93 584.688 26.72 586.5 28.5 C588.934 30.891 591.214 33.35 593.438 35.938 C595.856 38.746 598.359 41.4 601 44 C604.272 47.222 607.293 50.586 610.285 54.066 C611.96 55.955 613.699 57.732 615.5 59.5 C617.934 61.891 620.214 64.35 622.438 66.938 C624.856 69.746 627.359 72.4 630 75 C633.272 78.222 636.293 81.586 639.285 85.066 C640.96 86.955 642.699 88.732 644.5 90.5 C646.934 92.891 649.214 95.35 651.438 97.938 C653.856 100.746 656.359 103.4 659 106 C662.272 109.222 665.293 112.586 668.285 116.066 C670.5 118.564 672.869 120.88 675.25 123.219 C677.706 125.719 679.963 128.377 682.25 131.031 C683.938 132.93 685.688 134.72 687.5 136.5 C689.934 138.891 692.214 141.35 694.438 143.938 C696.856 146.746 699.359 149.4 702 152 C705.272 155.222 708.293 158.586 711.285 162.066 C712.96 163.955 714.699 165.732 716.5 167.5 C718.934 169.891 721.214 172.35 723.438 174.938 C725.856 177.746 728.359 180.4 731 183 C734.272 186.222 737.293 189.586 740.285 193.066 C741.96 194.955 743.699 196.732 745.5 198.5 C747.934 200.891 750.214 203.35 752.438 205.938 C754.856 208.746 757.359 211.4 760 214 C763.272 217.222 766.293 220.586 769.285 224.066 C770.96 225.955 772.699 227.732 774.5 229.5 C776.934 231.891 779.214 234.35 781.438 236.938 C784.406 240.384 787.541 243.591 790.812 246.75 C791.534 247.493 792.256 248.235 793 249 C793.567 249.487 794.133 249.974 794.717 250.476 C798.932 254.505 800.487 257.537 800.842 263.391 C800.862 265.939 800.844 268.487 800.795 271.035 C800.793 272.445 800.794 273.855 800.798 275.265 C800.8 279.073 800.759 282.879 800.71 286.687 C800.666 290.673 800.662 294.66 800.654 298.646 C800.632 306.187 800.574 313.726 800.504 321.266 C800.411 331.461 800.373 341.656 800.333 351.851 C800.267 367.901 800.127 383.95 800 400 C773.6 400 747.2 400 720 400 C720 373.6 720 347.2 720 320 C640.8 320 561.6 320 480 320 C480 240.8 480 161.6 480 80 C348 80 216 80 80 80 C80 185.6 80 291.2 80 400 C53.6 400 27.2 400 0 400 C0 268 0 136 0 0 Z " fill="#000000" transform="translate(0,0)"/>
<path d="M0 0 C66 0 132 0 200 0 C200 26.4 200 52.8 200 80 C160.4 80 120.8 80 80 80 C80 93.2 80 106.4 80 120 C113 120 146 120 180 120 C180 146.4 180 172.8 180 200 C147 200 114 200 80 200 C80 239.6 80 279.2 80 320 C53.6 320 27.2 320 0 320 C0 214.4 0 108.8 0 0 Z " fill="#000000" transform="translate(0,480)"/>
<path d="M0 0 C79.2 0 158.4 0 240 0 C240 26.4 240 52.8 240 80 C213.6 80 187.2 80 160 80 C160 159.2 160 238.4 160 320 C133.6 320 107.2 320 80 320 C80 240.8 80 161.6 80 80 C53.6 80 27.2 80 0 80 C0 53.6 0 27.2 0 0 Z " fill="#000000" transform="translate(240,480)"/>
<path d="M0 0 C29.184 -0.062 58.369 -0.124 88.438 -0.188 C97.628 -0.215 106.818 -0.242 116.287 -0.27 C127.572 -0.284 127.572 -0.284 132.868 -0.286 C136.54 -0.289 140.211 -0.3 143.883 -0.317 C148.586 -0.338 153.289 -0.343 157.992 -0.339 C159.706 -0.34 161.42 -0.346 163.134 -0.358 C196.571 -0.575 224.905 10.641 249 34 C268.271 53.199 279.264 80.548 280.5 107.562 C279.829 130.025 264.534 153.697 249 169 C233.285 183.311 214.769 193.338 194 198 C193.644 198.084 193.644 198.084 191.842 198.511 C180.844 200.742 169.684 200.25 158.516 200.195 C156.502 200.192 154.489 200.19 152.476 200.189 C145.067 200.179 137.659 200.151 130.25 200.125 C113.668 200.084 97.085 200.043 80 200 C80 239.6 80 279.2 80 320 C53.6 320 27.2 320 0 320 C0 214.4 0 108.8 0 0 Z M80 80 C80 93.2 80 106.4 80 120 C100.803 120.201 100.803 120.201 109.664 120.244 C115.713 120.274 121.761 120.309 127.81 120.377 C132.685 120.431 137.561 120.461 142.437 120.474 C144.298 120.484 146.16 120.502 148.021 120.529 C150.626 120.565 153.229 120.57 155.835 120.568 C156.606 120.586 157.377 120.604 158.172 120.622 C162.044 120.585 163.637 120.357 166.445 117.592 C170.897 110.171 172.027 102.584 171 94 C170.011 90.466 168.748 87.227 167 84 C166.647 83.305 166.294 82.61 165.93 81.894 C163.477 79.487 161.646 79.528 158.296 79.502 C157.909 79.51 157.909 79.51 155.948 79.546 C155.129 79.545 154.309 79.545 153.464 79.544 C150.753 79.547 148.043 79.578 145.332 79.609 C143.453 79.617 141.574 79.623 139.695 79.627 C134.748 79.642 129.802 79.681 124.855 79.725 C118.92 79.773 112.986 79.792 107.051 79.815 C98.034 79.854 89.017 79.931 80 80 Z " fill="#000000" transform="translate(520,480)"/>
</svg>
