<?xml version="1.0" encoding="UTF-8"?>
<!-- Generator: visioncortex VTracer 0.6.12 -->
<svg version="1.1" xmlns="http://www.w3.org/2000/svg" width="669" height="668">
<path d="M0 0 C0.644 -0.051 1.287 -0.102 1.951 -0.154 C4.118 -0.324 6.285 -0.488 8.453 -0.651 C9.218 -0.709 9.982 -0.767 10.77 -0.827 C16.803 -1.285 22.838 -1.726 28.873 -2.161 C29.784 -2.227 30.696 -2.293 31.635 -2.361 C68.19 -5.003 104.761 -6.708 141.388 -7.974 C147.292 -8.179 153.196 -8.391 159.099 -8.607 C160.273 -8.65 161.448 -8.693 162.658 -8.738 C179 -9.351 195.272 -10.36 211.569 -11.709 C307.739 -19.66 394.825 -18.883 472.241 45.756 C534.962 99.254 575.605 160.136 582.395 243.332 C585.89 291.038 583.264 338.954 579.922 386.586 C578.542 406.313 577.616 426.022 577.02 445.788 C576.999 446.47 576.979 447.152 576.957 447.854 C576.77 454.026 576.588 460.198 576.411 466.37 C575.19 509.054 573.524 551.701 570.886 594.322 C570.69 597.518 570.5 600.714 570.311 603.911 C570.017 608.844 569.704 613.775 569.376 618.705 C569.259 620.484 569.148 622.262 569.042 624.041 C568.152 638.802 566.136 650.359 554.6 660.587 C549.248 664.305 544.18 666.708 537.601 666.716 C536.809 666.719 536.017 666.722 535.201 666.725 C534.335 666.724 533.469 666.722 532.577 666.721 C532.114 666.722 532.114 666.722 529.768 666.728 C526.639 666.735 523.511 666.734 520.382 666.734 C518.125 666.737 515.868 666.741 513.612 666.745 C507.392 666.755 501.172 666.759 494.952 666.761 C488.939 666.765 482.926 666.773 476.912 666.781 C460.799 666.802 444.685 666.812 428.572 666.821 C420.95 666.825 413.328 666.831 405.705 666.836 C379.616 666.854 353.527 666.869 327.438 666.876 C325.8 666.877 324.162 666.877 322.524 666.878 C321.712 666.878 320.9 666.878 320.063 666.878 C315.947 666.879 311.832 666.881 307.716 666.882 C307.308 666.882 307.308 666.882 305.241 666.883 C278.759 666.891 252.277 666.914 225.794 666.946 C197.799 666.981 169.803 667 141.808 667.004 C138.735 667.004 135.662 667.005 132.588 667.005 C131.832 667.005 131.075 667.005 130.295 667.006 C118.117 667.008 105.938 667.024 93.759 667.044 C81.518 667.064 69.277 667.07 57.036 667.06 C50.403 667.055 43.772 667.058 37.14 667.077 C31.068 667.095 24.998 667.094 18.927 667.078 C16.73 667.076 14.533 667.08 12.337 667.092 C9.35 667.107 6.364 667.097 3.377 667.082 C2.525 667.092 1.674 667.102 0.796 667.113 C-8.309 667.008 -15.962 663.832 -22.58 657.575 C-30.598 648.817 -32.707 640.79 -32.658 629.198 C-32.661 628.16 -32.665 627.122 -32.668 626.053 C-32.678 622.563 -32.673 619.074 -32.668 615.585 C-32.672 613.063 -32.676 610.54 -32.682 608.017 C-32.691 602.527 -32.695 597.037 -32.693 591.547 C-32.69 583.382 -32.698 575.218 -32.708 567.053 C-32.728 551.623 -32.733 536.193 -32.734 520.763 C-32.735 508.847 -32.74 496.931 -32.746 485.016 C-32.748 481.586 -32.749 478.157 -32.751 474.727 C-32.752 473.875 -32.752 473.022 -32.753 472.144 C-32.765 448.162 -32.773 424.179 -32.772 400.197 C-32.772 399.293 -32.772 398.389 -32.772 397.457 C-32.772 392.874 -32.771 388.29 -32.771 383.707 C-32.771 382.797 -32.771 381.887 -32.771 380.949 C-32.771 379.108 -32.771 377.267 -32.771 375.426 C-32.77 346.786 -32.785 318.147 -32.812 289.507 C-32.843 257.333 -32.86 225.159 -32.858 192.985 C-32.858 189.555 -32.858 186.124 -32.858 182.693 C-32.858 181.848 -32.858 181.004 -32.858 180.133 C-32.858 166.539 -32.87 152.945 -32.888 139.35 C-32.905 125.688 -32.907 112.025 -32.893 98.363 C-32.886 90.247 -32.89 82.131 -32.909 74.014 C-32.923 67.953 -32.915 61.893 -32.9 55.832 C-32.896 53.38 -32.9 50.929 -32.911 48.477 C-32.925 45.144 -32.915 41.812 -32.898 38.479 C-32.908 37.528 -32.918 36.577 -32.928 35.597 C-32.815 24.824 -29.288 16.479 -21.846 8.755 C-15.169 2.835 -8.75 0.683 0 0 Z M34.6 66.587 C34.6 242.807 34.6 419.027 34.6 600.587 C188.38 600.587 342.16 600.587 500.6 600.587 C500.6 468.587 500.6 336.587 500.6 200.587 C456.71 200.587 412.82 200.587 367.6 200.587 C367.6 156.367 367.6 112.147 367.6 66.587 C257.71 66.587 147.82 66.587 34.6 66.587 Z " fill="#000000" transform="translate(65.40038871765137,0.41326236724853516)"/>
<path d="M0 0 C21.78 0 43.56 0 66 0 C66.33 32.67 66.66 65.34 67 99 C99.67 99.33 132.34 99.66 166 100 C166 121.78 166 143.56 166 166 C149.665 166.165 149.665 166.165 67 167 C66.67 199.67 66.34 232.34 66 266 C44.22 266 22.44 266 0 266 C-0.33 233.33 -0.66 200.66 -1 167 C-33.67 166.67 -66.34 166.34 -100 166 C-100 144.22 -100 122.44 -100 100 C-83.665 99.835 -83.665 99.835 -1 99 C-0.67 66.33 -0.34 33.66 0 0 Z " fill="#000000" transform="translate(300,201)"/>
</svg>
