<?xml version="1.0" encoding="UTF-8"?>
<!-- Generator: visioncortex VTracer 0.6.12 -->
<svg version="1.1" xmlns="http://www.w3.org/2000/svg" width="800" height="800">
<path d="M0 0 C2.569 1.262 5.154 2.489 7.74 3.717 C35.212 16.927 61.469 34.182 83.904 54.904 C85.914 56.743 87.952 58.521 90.018 60.295 C95.164 64.788 99.987 69.592 104.818 74.42 C105.708 75.298 106.599 76.176 107.516 77.08 C113.578 83.129 119.038 89.483 124.381 96.17 C125.94 97.985 127.502 99.798 129.068 101.607 C184.916 168.831 210.101 257.021 202.74 343.428 C199.282 379.435 189.557 416.249 173.551 448.789 C172.288 451.358 171.062 453.943 169.834 456.529 C156.624 484.001 139.369 510.258 118.646 532.693 C116.808 534.703 115.03 536.741 113.256 538.807 C108.762 543.953 103.959 548.776 99.131 553.607 C98.253 554.498 97.375 555.388 96.471 556.305 C90.421 562.367 84.067 567.827 77.381 573.17 C75.566 574.729 73.753 576.291 71.943 577.857 C4.72 633.705 -83.47 658.891 -169.877 651.529 C-205.884 648.071 -242.698 638.346 -275.238 622.34 C-277.808 621.077 -280.392 619.851 -282.979 618.623 C-310.451 605.413 -336.707 588.158 -359.143 567.436 C-361.152 565.597 -363.191 563.819 -365.256 562.045 C-370.402 557.552 -375.226 552.748 -380.057 547.92 C-380.947 547.042 -381.837 546.164 -382.754 545.26 C-388.816 539.211 -394.276 532.856 -399.619 526.17 C-401.179 524.355 -402.74 522.542 -404.307 520.732 C-460.154 453.509 -485.34 365.319 -477.979 278.912 C-474.521 242.905 -464.796 206.091 -448.789 173.551 C-447.527 170.982 -446.3 168.397 -445.072 165.811 C-431.863 138.338 -414.607 112.082 -393.885 89.646 C-392.047 87.637 -390.268 85.599 -388.494 83.533 C-384.001 78.387 -379.197 73.564 -374.369 68.732 C-373.491 67.842 -372.613 66.952 -371.709 66.035 C-365.66 59.973 -359.306 54.513 -352.619 49.17 C-350.804 47.61 -348.991 46.049 -347.182 44.482 C-263.718 -24.857 -145.882 -48.809 0 0 Z M-185.619 56.17 C-186.147 56.267 -186.147 56.267 -188.816 56.756 C-233.213 65.152 -274.341 83.578 -308.619 113.17 C-309.399 113.839 -310.179 114.508 -310.982 115.197 C-323.436 126.143 -334.795 137.812 -344.619 151.17 C-345.045 151.741 -345.472 152.311 -345.911 152.899 C-356.04 166.489 -364.38 180.857 -371.619 196.17 C-371.915 196.789 -372.211 197.408 -372.517 198.045 C-382.326 218.731 -388.453 240.713 -392.619 263.17 C-392.709 263.646 -392.709 263.646 -393.163 266.056 C-398.437 295.689 -398.167 329.607 -392.619 359.17 C-392.522 359.697 -392.522 359.697 -392.033 362.367 C-383.637 406.764 -365.211 447.892 -335.619 482.17 C-334.95 482.95 -334.281 483.73 -333.592 484.533 C-322.646 496.987 -310.977 508.346 -297.619 518.17 C-297.334 518.383 -297.334 518.383 -295.89 519.461 C-282.3 529.59 -267.932 537.93 -252.619 545.17 C-252 545.466 -251.381 545.762 -250.744 546.067 C-230.058 555.877 -208.076 562.004 -185.619 566.17 C-185.143 566.26 -185.143 566.26 -182.733 566.713 C-153.1 571.987 -119.182 571.718 -89.619 566.17 C-89.092 566.073 -89.092 566.073 -86.422 565.584 C-42.025 557.188 -0.897 538.761 33.381 509.17 C34.161 508.501 34.941 507.832 35.744 507.143 C48.198 496.197 59.557 484.528 69.381 471.17 C69.807 470.599 70.233 470.028 70.672 469.44 C80.801 455.851 89.141 441.483 96.381 426.17 C96.677 425.551 96.973 424.932 97.278 424.294 C107.088 403.609 113.215 381.627 117.381 359.17 C117.471 358.694 117.471 358.694 117.924 356.284 C123.198 326.651 122.929 292.733 117.381 263.17 C117.284 262.642 117.284 262.642 116.795 259.973 C108.399 215.576 89.972 174.448 60.381 140.17 C59.712 139.39 59.043 138.61 58.354 137.807 C47.408 125.353 35.739 113.994 22.381 104.17 C21.81 103.744 21.239 103.318 20.651 102.878 C7.062 92.749 -7.306 84.409 -22.619 77.17 C-23.238 76.874 -23.857 76.578 -24.495 76.272 C-45.18 66.463 -67.162 60.336 -89.619 56.17 C-90.571 55.991 -91.524 55.811 -92.505 55.626 C-122.138 50.352 -156.056 50.622 -185.619 56.17 Z " fill="#000000" transform="translate(537.619140625,88.830078125)"/>
<path d="M0 0 C29.66 25.573 50.635 59.999 54.086 99.547 C55.571 122.061 50.131 143.271 41.138 163.729 C39.919 166.529 38.777 169.36 37.625 172.188 C34.021 181.008 29.462 188.639 24.118 196.51 C22.089 199.5 20.075 202.502 18.062 205.504 C17.657 206.108 17.252 206.711 16.835 207.333 C13.113 212.895 9.508 218.527 5.938 224.188 C1.444 231.302 -3.129 238.351 -7.818 245.338 C-12.47 252.276 -17.051 259.26 -21.625 266.25 C-22.438 267.493 -23.252 268.736 -24.065 269.979 C-25.319 271.895 -26.573 273.811 -27.826 275.726 C-33.047 283.704 -38.28 291.674 -43.513 299.644 C-48.239 306.842 -52.963 314.043 -57.676 321.25 C-65.276 332.873 -72.889 344.488 -80.562 356.062 C-81.211 357.045 -81.859 358.028 -82.527 359.041 C-89.584 369.653 -97.271 378.522 -110.055 382.188 C-122.226 384.21 -134.584 383.141 -144.938 375.938 C-155.446 367.246 -161.576 357.655 -162.945 344.066 C-163.585 329.373 -156.553 318.322 -148.688 306.625 C-147.959 305.525 -147.231 304.426 -146.48 303.293 C-144.925 300.948 -143.358 298.61 -141.789 296.273 C-137.947 290.535 -134.166 284.757 -130.381 278.98 C-129.56 277.726 -128.738 276.472 -127.915 275.218 C-122.123 266.385 -116.386 257.519 -110.688 248.625 C-111.863 248.233 -113.039 247.841 -114.25 247.438 C-115.075 247.159 -115.9 246.881 -116.75 246.594 C-118.846 245.902 -120.952 245.239 -123.062 244.594 C-132.818 241.535 -141.696 237.474 -150.688 232.625 C-151.219 232.341 -151.219 232.341 -153.906 230.906 C-187.335 212.257 -213.756 179.3 -224.688 142.625 C-233.807 107.999 -229.255 73.413 -211.234 42.301 C-206.626 34.619 -201.569 27.395 -195.688 20.625 C-194.968 19.796 -194.249 18.967 -193.508 18.113 C-191.268 15.583 -188.992 13.096 -186.688 10.625 C-185.99 9.873 -185.293 9.122 -184.574 8.348 C-134.148 -44.106 -54.894 -46.055 0 0 Z M-134.688 67.625 C-146.882 83.588 -147.636 104.966 -145.387 124.193 C-143.927 132.548 -140.645 139.795 -135.688 146.625 C-135.248 147.258 -134.808 147.891 -134.355 148.543 C-126.517 158.776 -113.689 163.711 -101.375 165.875 C-83.863 168.165 -64.574 167.056 -49.688 156.625 C-46.791 153.567 -44.811 150.244 -42.688 146.625 C-41.929 145.522 -41.159 144.428 -40.379 143.34 C-39.975 142.775 -39.57 142.211 -39.154 141.629 C-38.752 141.071 -38.351 140.513 -37.938 139.938 C-27.869 125.803 -27.946 108.846 -30.004 92.041 C-32.442 78.631 -39.246 67.185 -50.035 58.801 C-74.947 42.72 -114.415 45.669 -134.688 67.625 Z " fill="#000000" transform="translate(487.6875,225.375)"/>
</svg>
